<?xml version="1.0" encoding="UTF-8" standalone="no"?>
<!DOCTYPE svg PUBLIC "-//W3C//DTD SVG 1.1//EN"
 "http://www.w3.org/Graphics/SVG/1.1/DTD/svg11.dtd">
<!-- Generated by graphviz version 2.38.0 (20140413.2041)
 -->
<!-- Title: classes_No_Name Pages: 1 -->
<svg width="316pt" height="290pt"
 viewBox="0.00 0.00 315.50 290.00" xmlns="http://www.w3.org/2000/svg" xmlns:xlink="http://www.w3.org/1999/xlink">
<g id="graph0" class="graph" transform="scale(1 1) rotate(0) translate(4 286)">
<title>classes_No_Name</title>
<polygon fill="white" stroke="none" points="-4,4 -4,-286 311.5,-286 311.5,4 -4,4"/>
<!-- 0 -->
<g id="node1" class="node"><title>0</title>
<polygon fill="none" stroke="black" points="0,-122.5 0,-281.5 188,-281.5 188,-122.5 0,-122.5"/>
<text text-anchor="middle" x="94" y="-266.3" font-family="Times,serif" font-size="14.00">BioBeamer</text>
<polyline fill="none" stroke="black" points="0,-258.5 188,-258.5 "/>
<text text-anchor="start" x="8" y="-243.3" font-family="Times,serif" font-size="14.00">logger : NoneType, RootLogger</text>
<text text-anchor="start" x="8" y="-228.3" font-family="Times,serif" font-size="14.00">para : dict</text>
<text text-anchor="start" x="8" y="-213.3" font-family="Times,serif" font-size="14.00">regex</text>
<polyline fill="none" stroke="black" points="0,-205.5 188,-205.5 "/>
<text text-anchor="start" x="8" y="-190.3" font-family="Times,serif" font-size="14.00">exec_cmd()</text>
<text text-anchor="start" x="8" y="-175.3" font-family="Times,serif" font-size="14.00">print_para()</text>
<text text-anchor="start" x="8" y="-160.3" font-family="Times,serif" font-size="14.00">run()</text>
<text text-anchor="start" x="8" y="-145.3" font-family="Times,serif" font-size="14.00">set_para()</text>
<text text-anchor="start" x="8" y="-130.3" font-family="Times,serif" font-size="14.00">sync()</text>
</g>
<!-- 1 -->
<g id="node2" class="node"><title>1</title>
<polygon fill="none" stroke="black" points="18.5,-8 18.5,-78 89.5,-78 89.5,-8 18.5,-8"/>
<text text-anchor="middle" x="54" y="-62.8" font-family="Times,serif" font-size="14.00">Robocopy</text>
<polyline fill="none" stroke="black" points="18.5,-55 89.5,-55 "/>
<polyline fill="none" stroke="black" points="18.5,-31 89.5,-31 "/>
<text text-anchor="start" x="26.5" y="-15.8" font-family="Times,serif" font-size="14.00">sync()</text>
</g>
<!-- 1&#45;&gt;0 -->
<g id="edge1" class="edge"><title>1&#45;&gt;0</title>
<path fill="none" stroke="black" d="M62.6794,-78.0667C65.3083,-88.3851 68.3263,-100.231 71.4283,-112.406"/>
<polygon fill="none" stroke="black" points="68.0675,-113.392 73.9281,-122.218 74.8508,-111.663 68.0675,-113.392"/>
</g>
<!-- 2 -->
<g id="node3" class="node"><title>2</title>
<polygon fill="none" stroke="black" points="108,-8 108,-78 162,-78 162,-8 108,-8"/>
<text text-anchor="middle" x="135" y="-62.8" font-family="Times,serif" font-size="14.00">Rsync</text>
<polyline fill="none" stroke="black" points="108,-55 162,-55 "/>
<polyline fill="none" stroke="black" points="108,-31 162,-31 "/>
<text text-anchor="middle" x="135" y="-15.8" font-family="Times,serif" font-size="14.00"> </text>
</g>
<!-- 2&#45;&gt;0 -->
<g id="edge2" class="edge"><title>2&#45;&gt;0</title>
<path fill="none" stroke="black" d="M126.104,-78.0667C123.409,-88.3851 120.316,-100.231 117.136,-112.406"/>
<polygon fill="none" stroke="black" points="113.714,-111.658 114.574,-122.218 120.487,-113.427 113.714,-111.658"/>
</g>
<!-- 3 -->
<g id="node4" class="node"><title>3</title>
<polygon fill="none" stroke="black" points="180.5,-0.5 180.5,-85.5 307.5,-85.5 307.5,-0.5 180.5,-0.5"/>
<text text-anchor="middle" x="244" y="-70.3" font-family="Times,serif" font-size="14.00">TestTargetMapping</text>
<polyline fill="none" stroke="black" points="180.5,-62.5 307.5,-62.5 "/>
<polyline fill="none" stroke="black" points="180.5,-38.5 307.5,-38.5 "/>
<text text-anchor="start" x="188.5" y="-23.3" font-family="Times,serif" font-size="14.00">setUp()</text>
<text text-anchor="start" x="188.5" y="-8.3" font-family="Times,serif" font-size="14.00">test_tripletoff()</text>
</g>
</g>
</svg>
